<svg xmlns="http://www.w3.org/2000/svg" viewBox="0 0 193.23 52.53"><defs><style>.cls-1{fill:#389bd7;}.cls-2{fill:#231f20;}.cls-3{fill:none;stroke:#231f20;stroke-width:0.25px;}</style></defs><title>Asset 3</title><g id="Layer_2" data-name="Layer 2"><g id="COLOR"><path class="cls-1" d="M17.54,40a12,12,0,0,1-4.2.66A12,12,0,0,1,9.15,40a14.13,14.13,0,0,0-4.87-.76A13.87,13.87,0,0,0,0,39.84v2.37l.08,0a12,12,0,0,1,4.2-.66,12,12,0,0,1,4.2.66,14.13,14.13,0,0,0,4.87.76,14.12,14.12,0,0,0,4.87-.76,12,12,0,0,1,4.2-.66,12,12,0,0,1,4.2.66l.06,0V39.84a13.85,13.85,0,0,0-4.26-.57,14.12,14.12,0,0,0-4.87.76"/><path class="cls-1" d="M17.54,35.94a12,12,0,0,1-4.2.66,12,12,0,0,1-4.2-.66,14.13,14.13,0,0,0-4.87-.76A13.87,13.87,0,0,0,0,35.76v2.37l.08,0a12,12,0,0,1,4.2-.66,12,12,0,0,1,4.2.66,14.13,14.13,0,0,0,4.87.76,14.12,14.12,0,0,0,4.87-.76,12,12,0,0,1,4.2-.66,12,12,0,0,1,4.2.66l.06,0V35.75a13.85,13.85,0,0,0-4.26-.57,14.12,14.12,0,0,0-4.87.76"/><path class="cls-1" d="M23,3.49l-2.3,2.62-2.3-2.62L14.64,7.85V22.69c.74-.34,1.49-.66,2.26-.93V8.69l1.48-1.74L19.91,8.7H21.4l1.53-1.75,1.48,1.74V20.21c.56,0,1.12-.05,1.68-.05h.58V7.85Z"/><path class="cls-1" d="M22.42,31.08a17.62,17.62,0,0,0-1.8.09V24.48a23.61,23.61,0,0,1,3.79-.58v7.28a17.53,17.53,0,0,0-2-.1m-4.87.76a11.86,11.86,0,0,1-3,.61V26.84a24.19,24.19,0,0,1,3.79-1.69v6.45l-.81.25m-9.12-.22a25.7,25.7,0,0,1,3.88-3.36v4.2a11.85,11.85,0,0,1-3.15-.62l-.72-.22m-2.61-.48c-.46,0-1-.06-1.54-.06a17.26,17.26,0,0,0-2,.11V5.53L5,2.26h6.47l3,3.6L16,4.11,12.53,0H3.95L0,4.71V34l.08,0a12,12,0,0,1,4.2-.66,12,12,0,0,1,4.2.66,14.12,14.12,0,0,0,4.87.76A14.12,14.12,0,0,0,18.22,34a12,12,0,0,1,4.2-.66,12,12,0,0,1,4.2.66l.06,0V21.57h-.58A26.67,26.67,0,0,0,5.81,31.14"/><path class="cls-1" d="M8,26.95V13.58l2-2.38,2.25,2.7L14,12.45,10,7.67,5.74,12.76V29.1A29.8,29.8,0,0,1,8,26.95"/><path class="cls-1" d="M8,30.88H8v-.05L8,30.88"/><polygon class="cls-2" points="34.98 9.96 34.98 11.6 33.79 11.6 33.79 19.28 32.12 19.28 32.12 11.6 30.93 11.6 30.93 9.96 34.98 9.96"/><polygon class="cls-2" points="37.09 19.28 35.42 19.28 35.42 9.96 37.09 9.96 37.09 13.52 37.97 13.52 37.97 9.96 39.63 9.96 39.63 19.28 37.97 19.28 37.97 15.35 37.09 15.35 37.09 19.28"/><polygon class="cls-2" points="43.91 9.96 43.91 11.6 42.09 11.6 42.09 13.63 43.52 13.63 43.52 15.31 42.09 15.31 42.09 17.6 44 17.6 44 19.28 40.43 19.28 40.43 9.96 43.91 9.96"/><path class="cls-2" d="M33.55,25.42h.31c.38,0,.43-.24.43-.53V23.34c0-.32-.05-.55-.43-.55h-.31Zm0,1.52v3.74H31.88V21.35h2.37c1.42,0,1.72.7,1.72,1.84v1.87c0,1.14-.46,1.88-1.63,1.88Z"/><rect class="cls-2" x="36.55" y="21.35" width="1.67" height="9.33"/><polygon class="cls-2" points="42.71 21.35 42.71 22.99 41.52 22.99 41.52 30.68 39.85 30.68 39.85 22.99 38.66 22.99 38.66 21.35 42.71 21.35"/><polygon class="cls-2" points="47.16 21.35 47.16 22.99 45.97 22.99 45.97 30.68 44.3 30.68 44.3 22.99 43.11 22.99 43.11 21.35 47.16 21.35"/><path class="cls-2" d="M49.65,21.24c1.3,0,1.79.6,1.79,1.83v1.25h-1.6V23.16c0-.3-.06-.49-.36-.49s-.36.19-.36.5v.21a1.59,1.59,0,0,0,.51,1.2l1,1.07a3.24,3.24,0,0,1,1,2.39v.44c0,1.39-.65,2.31-2,2.31h-.33a1.71,1.71,0,0,1-1.9-1.93V27.18H49v1.49c0,.38.13.56.43.56s.41-.23.41-.68v-.18a1.7,1.7,0,0,0-.54-1.45l-1-1.07a3.22,3.22,0,0,1-.89-2.37v-.4a1.72,1.72,0,0,1,1.89-1.86Z"/><path class="cls-2" d="M54,26.5V29.2h.46c.28,0,.43-.09.43-.61V27.07c0-.39-.11-.56-.49-.56Zm0-3.72V25h.38c.28,0,.45-.13.45-.55V23.28c0-.34-.11-.5-.43-.5ZM52.3,21.35h2.52c1.12,0,1.62.44,1.62,1.67v1.24a1.32,1.32,0,0,1-.79,1.3c.48.13.93.48.93,1.47v1.55c0,1.47-.51,2.09-1.53,2.09H52.3Z"/><path class="cls-2" d="M57.21,21.35h1.72v7.22c0,.36.13.58.41.58s.4-.21.4-.58V21.35h1.72v7.16c0,1.53-.75,2.31-1.93,2.31h-.41c-1.22,0-1.9-.78-1.9-2.31Z"/><path class="cls-2" d="M64,25.15h.33c.33,0,.46-.12.46-.56V23.32c0-.4-.08-.53-.41-.53H64Zm0,5.53H62.3V21.35h2.63a1.38,1.38,0,0,1,1.53,1.55V24.4a1.27,1.27,0,0,1-.74,1.25,1.1,1.1,0,0,1,.71,1.1v3.17a1.31,1.31,0,0,0,.14.69v.06H64.9a1.2,1.2,0,0,1-.15-.71V27.24c0-.43-.1-.55-.44-.55H64Z"/><path class="cls-2" d="M68.73,30.8c-1,0-1.52-.84-1.52-1.83V23.42c0-1.15.48-2.18,1.94-2.18h.34c1.64,0,1.93,1.05,1.93,2.17v1H69.8v-1c0-.38-.09-.59-.43-.59s-.41.2-.41.59v5.19c0,.4.16.6.45.6s.49-.2.49-.58v-2h-.61V25H71.5v5.64h-1c-.05-.21-.15-.6-.25-.89a1.58,1.58,0,0,1-1.38,1Z"/><polygon class="cls-2" points="73.98 30.68 72.32 30.68 72.32 21.35 73.98 21.35 73.98 24.91 74.86 24.91 74.86 21.35 76.53 21.35 76.53 30.68 74.86 30.68 74.86 26.74 73.98 26.74 73.98 30.68"/><polygon class="cls-2" points="31.81 32.74 35.38 32.74 35.38 34.37 33.48 34.37 33.48 36.4 34.88 36.4 34.88 38.08 33.48 38.08 33.48 42.07 31.81 42.07 31.81 32.74"/><path class="cls-2" d="M38.49,34.87c0-.41-.14-.61-.44-.61s-.45.2-.45.61V40c0,.29.11.55.46.55s.43-.26.43-.55Zm1.74,5.06c0,1.37-.73,2.27-2,2.27h-.38c-1.32,0-2-.81-2-2.27V35c0-1.44.56-2.38,2-2.38h.38c1.47,0,2,.94,2,2.37Z"/><path class="cls-2" d="M41.09,32.74h1.72V40c0,.36.13.58.41.58s.4-.21.4-.58V32.74h1.72V39.9c0,1.53-.75,2.31-1.93,2.31H43c-1.22,0-1.9-.78-1.9-2.31Z"/><polygon class="cls-2" points="47.8 32.74 48.94 37.51 48.94 32.74 50.42 32.74 50.42 42.07 49 42.07 47.71 36.95 47.71 42.07 46.23 42.07 46.23 32.74 47.8 32.74"/><path class="cls-2" d="M53,40.51h.33c.38,0,.49-.2.49-.65v-5c0-.45-.13-.63-.44-.63H53Zm-1.67-7.77h2.37c1.24,0,1.82.58,1.82,2V40c0,1.33-.45,2.07-1.82,2.07H51.32Z"/><path class="cls-2" d="M57.64,38.9h.68L58,35.7Zm.84,1.6h-1l-.15,1.57H55.85L57,32.74h2l1.27,9.33H58.66Z"/><polygon class="cls-2" points="63.96 32.74 63.96 34.38 62.77 34.38 62.77 42.07 61.1 42.07 61.1 34.38 59.91 34.38 59.91 32.74 63.96 32.74"/><rect class="cls-2" x="64.45" y="32.74" width="1.67" height="9.32"/><path class="cls-2" d="M69.62,34.87c0-.41-.14-.61-.44-.61s-.45.2-.45.61V40c0,.29.11.55.46.55s.43-.26.43-.55Zm1.74,5.06c0,1.37-.73,2.27-2,2.27H69c-1.32,0-2-.81-2-2.27V35c0-1.44.56-2.38,2-2.38h.38c1.47,0,2,.94,2,2.37Z"/><polygon class="cls-2" points="73.73 32.74 74.87 37.51 74.87 32.74 76.35 32.74 76.35 42.07 74.94 42.07 73.64 36.95 73.64 42.07 72.17 42.07 72.17 32.74 73.73 32.74"/><line class="cls-3" x1="82.22" y1="0.01" x2="82.22" y2="52.53"/><path class="cls-2" d="M141,27.88"/><path class="cls-1" d="M111.17,38.21,112,38c.34-.07.44-.17.51-.45l1.69-6.43c.16-.58,0-.68-.23-.73l-.73-.17v-.39h5.35a4.61,4.61,0,0,0,1-.11l-.45,2.76h-.39a5.05,5.05,0,0,0-.23-1.75,3.18,3.18,0,0,0-1.75-.39h-.11a3.59,3.59,0,0,0-1.08.15l-.87,3.4h1.56a3,3,0,0,0,1-1.24h.34L116.75,36h-.34a2.41,2.41,0,0,0-.28-1.47h-1.59l-.72,2.82c-.15.58,0,.68.28.73l1,.17v.39h-3.95Z"/><path class="cls-1" d="M121.85,32.41a1.77,1.77,0,0,1,2,2c0,2.22-1.49,4.34-3.66,4.34a1.77,1.77,0,0,1-2-2C118.18,34.54,119.67,32.41,121.85,32.41Zm-1.36,5.81c.75,0,1.47-.84,1.85-2.3a6.38,6.38,0,0,0,.19-1.56c0-.85-.25-1.41-.94-1.41s-1.51.87-1.89,2.34a6.17,6.17,0,0,0-.19,1.52C119.51,37.66,119.8,38.22,120.49,38.22Z"/><path class="cls-1" d="M124.78,36.67l.75-2.36a3.16,3.16,0,0,0,.23-1.23,1.61,1.61,0,0,0-1.14.83l-.18-.34a2,2,0,0,1,1.76-1.16c1,0,.88.87.56,1.87L126,36.57a5.11,5.11,0,0,0-.25.94c0,.19.06.36.34.36.68,0,1.56-1.07,2.35-2.4l.71-2.4,1-.66h.46l-.45,1.21-.88,3.18a4.4,4.4,0,0,0-.19,1,.58.58,0,0,0,.05.3,1.69,1.69,0,0,0,1.18-.87l.22.34a2.26,2.26,0,0,1-1.89,1.2.76.76,0,0,1-.79-.83,3.78,3.78,0,0,1,.21-1.14l.1-.37c-.81,1.45-1.59,2.34-2.58,2.34a.94.94,0,0,1-1-1A3.65,3.65,0,0,1,124.78,36.67Z"/><path class="cls-1" d="M132.35,33.78c.1-.36.09-.5-.26-.57l-.74-.14v-.3l1.71-.36c.52,0,.63.5.52,1L133.16,35C134,33.4,135,32.41,136,32.41c.72,0,1.06.36,1.06,1a4,4,0,0,1-.22,1.07l-.71,2.26a4.76,4.76,0,0,0-.25,1.07.76.76,0,0,0,.05.3,1.69,1.69,0,0,0,1.19-.87l.22.34a2.26,2.26,0,0,1-1.89,1.2.74.74,0,0,1-.8-.83,4.26,4.26,0,0,1,.25-1.25l.71-2.23a3,3,0,0,0,.21-.79c0-.23-.16-.32-.37-.32-.57,0-1.67,1.06-2.45,2.36l-.75,2.91H131Z"/><path class="cls-1" d="M141.55,32.41a1.53,1.53,0,0,1,1,.35l.54-1.92c.08-.3,0-.43-.39-.52l-.67-.16v-.3l2.17-.4h.5l-.46,1.34-1.6,6a5.94,5.94,0,0,0-.19,1,.58.58,0,0,0,.05.3,1.69,1.69,0,0,0,1.18-.87l.22.34a2.29,2.29,0,0,1-1.9,1.2.74.74,0,0,1-.78-.83,4.05,4.05,0,0,1,.16-1c-.46.78-1.24,1.82-2.34,1.82-.7,0-1.23-.53-1.23-1.67C137.81,34.72,139.31,32.41,141.55,32.41Zm.08,3.64.8-2.82a1.22,1.22,0,0,0-.76-.25c-1.39,0-2.57,1.94-2.57,3.91,0,.74.19,1,.57,1C140.2,37.88,141.12,36.94,141.62,36Z"/><path class="cls-1" d="M148,32.41a1.54,1.54,0,0,1,1.19.52l.72-.52h.52l-.45,1.21-.88,3.14a4.71,4.71,0,0,0-.19,1,.58.58,0,0,0,.05.3,1.69,1.69,0,0,0,1.18-.87l.22.34a2.26,2.26,0,0,1-1.89,1.2.75.75,0,0,1-.79-.83,3.56,3.56,0,0,1,.14-1c-.45.79-1.23,1.82-2.32,1.82-.7,0-1.23-.53-1.23-1.67C144.23,34.72,145.73,32.41,148,32.41Zm.1,3.6.81-2.74a1.16,1.16,0,0,0-.8-.28c-1.4,0-2.57,1.94-2.57,3.91,0,.74.19,1,.57,1C146.63,37.88,147.56,36.9,148.07,36Z"/><path class="cls-1" d="M150.92,33l1.36-.37,1.06-1.74h.61l-.52,1.86h1.37v.61h-1.54l-.7,2.51a6.35,6.35,0,0,0-.3,1.47,1.47,1.47,0,0,0,.12.68,1.76,1.76,0,0,0,1.46-1.14l.32.31a2.37,2.37,0,0,1-2.2,1.56c-.59,0-1-.35-1-1.14a6.81,6.81,0,0,1,.3-1.46l.8-2.8h-1.12Z"/><path class="cls-1" d="M155.4,36.8l.94-3.15c.08-.28-.05-.37-.36-.44l-.63-.14v-.3l1.94-.36H158l-.46,1.3-.87,3.07a4.53,4.53,0,0,0-.21,1,.83.83,0,0,0,.05.31,1.67,1.67,0,0,0,1.18-.87l.22.34a2.27,2.27,0,0,1-1.89,1.2.74.74,0,0,1-.79-.83A3.91,3.91,0,0,1,155.4,36.8Z"/><path class="cls-1" d="M162,32.41a1.77,1.77,0,0,1,2,2c0,2.22-1.49,4.34-3.66,4.34a1.77,1.77,0,0,1-2-2C158.37,34.54,159.86,32.41,162,32.41Zm-1.36,5.81c.75,0,1.47-.84,1.85-2.3a6.38,6.38,0,0,0,.19-1.56c0-.85-.25-1.41-.94-1.41s-1.51.87-1.89,2.34a6.17,6.17,0,0,0-.19,1.52C159.71,37.66,160,38.22,160.69,38.22Z"/><path class="cls-1" d="M165.9,33.78c.1-.36.09-.5-.26-.57l-.74-.14v-.3l1.71-.36c.52,0,.63.5.52,1L166.72,35c.85-1.61,1.81-2.61,2.83-2.61.72,0,1.06.36,1.06,1a4,4,0,0,1-.22,1.07l-.71,2.26a4.76,4.76,0,0,0-.25,1.07.76.76,0,0,0,.05.3,1.69,1.69,0,0,0,1.19-.87l.22.34a2.26,2.26,0,0,1-1.89,1.2.74.74,0,0,1-.8-.83,4.26,4.26,0,0,1,.25-1.25l.71-2.23a3,3,0,0,0,.21-.79c0-.23-.16-.32-.37-.32-.57,0-1.67,1.06-2.45,2.36l-.75,2.91h-1.28Z"/><path class="cls-1" d="M157.88,30.22a.72.72,0,1,1-.72.72A.69.69,0,0,1,157.88,30.22Z"/><path class="cls-2" d="M139.72,26a.72.72,0,1,1-.72.72A.69.69,0,0,1,139.72,26Z"/><path class="cls-2" d="M146.84,24.72"/><path class="cls-2" d="M93.74,18.35a6.11,6.11,0,0,1,2.37.45l.28-.34h.28l.17,3h-.39a6.76,6.76,0,0,0-.62-2,3.48,3.48,0,0,0-2-.68c-2.47,0-3.27,2-3.27,3.95,0,2.62,1.25,4.23,3,4.23a3.19,3.19,0,0,0,2-.56,7.87,7.87,0,0,0,1-2.09h.39L96.39,27a8.19,8.19,0,0,1-2.82.51c-3.06,0-4.73-1.83-4.73-4.73S91,18.35,93.74,18.35Z"/><path class="cls-2" d="M101.56,27l.44-.1c.3-.06.39-.12.39-.32v-3c0-.83-.21-1.65-1.24-1.65a1.62,1.62,0,0,0-1.43.92v3.73c0,.21.09.26.39.32l.48.1v.34h-3V27l.44-.1c.3-.06.39-.12.39-.32v-7c0-.27-.08-.39-.5-.57l-.34-.16V18.5l1.81-.34h.48a15.67,15.67,0,0,0-.1,1.86v2.36a2.18,2.18,0,0,1,2-1.28,1.86,1.86,0,0,1,2,2.11v3.33c0,.21.09.26.39.32l.48.1v.34h-3Z"/><path class="cls-2" d="M107.36,24.12l1.2-.31v-.7c0-1-.48-1.41-1.29-1.41a2.13,2.13,0,0,0-1,.23l.1.21a1.4,1.4,0,0,1,.17.59.65.65,0,0,1-.71.7.64.64,0,0,1-.66-.7,1.36,1.36,0,0,1,.74-1l.26-.16a3.27,3.27,0,0,1,1.58-.48c1.36,0,2.11.52,2.11,1.86v2.54a4.29,4.29,0,0,0,.1,1.16,2.39,2.39,0,0,0,.89.16v.28a2.8,2.8,0,0,1-1.27.35,1,1,0,0,1-1-.94h0a2.15,2.15,0,0,1-1.85.94A1.5,1.5,0,0,1,105,25.92C105,24.81,106.2,24.42,107.36,24.12Zm1.2,2V24.24l-.92.26c-.62.19-1.37.5-1.37,1.25s.4,1,1,1A1.66,1.66,0,0,0,108.56,26.12Z"/><path class="cls-2" d="M111.34,27l.44-.1c.3-.06.39-.12.39-.32V22.46c0-.27-.06-.41-.53-.57l-.26-.1v-.34l1.76-.34h.37v1.41a2,2,0,0,1,1.58-1.41.7.7,0,0,1,.78.71,1,1,0,0,1-.59.9.78.78,0,0,0-.7-.46,1.34,1.34,0,0,0-1.06.62v3.57c0,.27.06.3.46.37l.72.15v.34h-3.36Z"/><path class="cls-2" d="M116,27l.44-.1c.3-.06.39-.12.39-.32v-7c0-.27-.08-.39-.5-.57l-.34-.16V18.5l1.81-.34h.48a15.67,15.67,0,0,0-.1,1.86v6.52c0,.21.09.26.39.32l.48.1v.34h-3Z"/><path class="cls-2" d="M122.4,21.11a2,2,0,0,1,2.31,2.05,3.14,3.14,0,0,1-.1.7l-3.84-.1V24c0,1.63.79,2.54,2.09,2.54a2.12,2.12,0,0,0,1.64-.79l.15.12a2.59,2.59,0,0,1-2.48,1.58c-1.68,0-2.74-1.29-2.74-3.18A2.92,2.92,0,0,1,122.4,21.11Zm-1.58,2.27,2.52-.12a1,1,0,0,0,.06-.4c0-.88-.41-1.28-1.06-1.28C121.45,21.59,120.92,22.4,120.83,23.39Z"/><path class="cls-2" d="M125.63,25.19H126a5.2,5.2,0,0,0,.52,1.39,1.88,1.88,0,0,0,1.2.41,1,1,0,0,0,1.09-1c0-.61-.35-.89-.92-1.11l-1-.37a1.71,1.71,0,0,1-1.24-1.63c0-1.21,1.14-1.78,2.33-1.78a3.16,3.16,0,0,1,1.4.3l.21-.3h.26v2h-.31a5.76,5.76,0,0,0-.32-1.09,1.67,1.67,0,0,0-1.21-.45,1,1,0,0,0-1.07,1c0,.57.28.8.84,1l.92.35c.72.28,1.43.72,1.43,1.69,0,1.34-1.15,1.9-2.42,1.9a3.12,3.12,0,0,1-1.52-.35l-.21.35h-.31Z"/><path class="cls-2" d="M142.24,26.92l.85-.17c.34-.07.39-.11.39-.34V19.48c0-.23-.06-.27-.39-.34l-.85-.17v-.39h3.95V19l-.85.17c-.34.07-.39.11-.39.34v6.93c0,.23.06.27.39.34l.85.17v.39h-3.95Z"/><path class="cls-2" d="M154.35,28.27c-3,1.56-4.62-2-5.45-3.22-.47-.71-2-2.9-2-2.9l2.73-2.56a2,2,0,0,1,1-.51L151,19v-.39h-3.1V19l.56.11c.3.06.38.24.17.45l-3.21,3.26,1.91,2.66c2,2.85,4,5.46,7.14,3.08l-.17-.26"/><path class="cls-2" d="M153.54,24.12l1.2-.31v-.7c0-1-.48-1.41-1.29-1.41a2.13,2.13,0,0,0-1,.23l.1.21a1.4,1.4,0,0,1,.17.59.65.65,0,0,1-.71.7.64.64,0,0,1-.66-.7,1.36,1.36,0,0,1,.74-1l.26-.16a3.27,3.27,0,0,1,1.58-.48c1.36,0,2.11.52,2.11,1.86v2.54a4.29,4.29,0,0,0,.1,1.16,2.39,2.39,0,0,0,.89.16v.28a2.8,2.8,0,0,1-1.27.35,1,1,0,0,1-1-.94h0a2.15,2.15,0,0,1-1.85.94,1.5,1.5,0,0,1-1.71-1.55C151.19,24.81,152.38,24.42,153.54,24.12Zm1.2,2V24.24l-.92.26c-.62.19-1.37.5-1.37,1.25s.4,1,1,1A1.66,1.66,0,0,0,154.74,26.12Z"/><path class="cls-2" d="M157.78,22.31c0-.19,0-.27-.36-.39l-.43-.14v-.32l1.9-.23h.34a11,11,0,0,0-.1,1.65v2c0,1,.21,1.72,1.15,1.72a1.57,1.57,0,0,0,1.46-.87V22.51c0-.34-.06-.37-.41-.5l-.52-.18V21.5l2-.27h.41a13.9,13.9,0,0,0-.1,1.86v3.27c0,.19.1.27.35.36l.41.16v.28l-2.11.31v-1.3a2.14,2.14,0,0,1-2,1.3c-1.3,0-2-.8-2-2.17Z"/><path class="cls-2" d="M164.57,21.42h.74v-.36A2.56,2.56,0,0,1,168,18.17c.67,0,1.18.28,1.18.88a.66.66,0,0,1-.67.67c-.41,0-.88-.36-.67-1.14-.57,0-1.18.43-1.18,1.86v1h1.5v.65h-1.5V26.5c0,.18.05.26.4.32l.83.15v.34h-3.41V27l.43-.1c.27-.06.41-.12.41-.32V22.07h-.94Z"/><path class="cls-2" d="M168.71,27l.44-.1c.3-.06.39-.12.39-.32V22.46c0-.27-.06-.41-.53-.57l-.26-.1v-.34l1.76-.34h.37v1.28a2.18,2.18,0,0,1,2-1.28,1.74,1.74,0,0,1,1.85,1.28h.05a2.18,2.18,0,0,1,2-1.28c1.32,0,1.92.83,1.92,2.11v3.33c0,.21.09.26.39.32l.48.1v.34h-3V27l.44-.1c.3-.06.39-.12.39-.32v-3c0-.83-.13-1.65-1.16-1.65a1.6,1.6,0,0,0-1.42.92v3.73c0,.21.06.25.39.32l.48.1v.34h-3V27l.44-.1c.3-.06.39-.12.39-.32v-3c0-.83-.12-1.65-1.15-1.65a1.62,1.62,0,0,0-1.43.92v3.73c0,.21.09.26.39.32l.48.1v.34h-3Z"/><path class="cls-2" d="M182.32,24.12l1.2-.31v-.7c0-1-.48-1.41-1.29-1.41a2.13,2.13,0,0,0-1,.23l.1.21a1.4,1.4,0,0,1,.17.59.65.65,0,0,1-.71.7.64.64,0,0,1-.66-.7,1.36,1.36,0,0,1,.74-1l.26-.16a3.27,3.27,0,0,1,1.58-.48c1.36,0,2.11.52,2.11,1.86v2.54a4.29,4.29,0,0,0,.1,1.16,2.39,2.39,0,0,0,.89.16v.28a2.8,2.8,0,0,1-1.27.35,1,1,0,0,1-1-.94h0a2.15,2.15,0,0,1-1.85.94A1.5,1.5,0,0,1,180,25.92C180,24.81,181.16,24.42,182.32,24.12Zm1.2,2V24.24l-.92.26c-.62.19-1.37.5-1.37,1.25a.89.89,0,0,0,1,1A1.66,1.66,0,0,0,183.52,26.12Z"/><path class="cls-2" d="M186.18,27l.44-.1c.3-.06.39-.12.39-.32V22.46c0-.27-.08-.37-.53-.57l-.26-.1v-.34l1.76-.34h.37v1.28a2.18,2.18,0,0,1,2-1.28,1.86,1.86,0,0,1,2,2.11v3.33c0,.21.09.26.39.32l.48.1v.34h-3V27l.44-.1c.3-.06.39-.12.39-.32v-3c0-.83-.21-1.65-1.24-1.65a1.62,1.62,0,0,0-1.43.92v3.73c0,.21.09.26.39.32l.48.1v.34h-3Z"/><path class="cls-2" d="M133,27l.49-.12c.24-.06.28-.08.28-.24V21.88c0-.14,0-.18-.28-.24l-.49-.12v-.31h4.11a4,4,0,0,0,.79-.08l.18,1.93h-.3a4.72,4.72,0,0,0-.51-1.2,2.7,2.7,0,0,0-1.34-.28h-.1a4.21,4.21,0,0,0-.73.08v2.22h1a1.62,1.62,0,0,0,.59-.92h.22v2.34h-.22a1.87,1.87,0,0,0-.59-1h-1v2.52a6,6,0,0,0,.83.08h.18a2.41,2.41,0,0,0,1.2-.26,3.72,3.72,0,0,0,.63-1.3h.3L138,27.31h-5Z"/><path class="cls-2" d="M139.72,26a.72.72,0,1,1-.72.72A.69.69,0,0,1,139.72,26Z"/></g></g></svg>